<?xml version="1.0" encoding="UTF-8" standalone="yes"?>
<svg xmlns="http://www.w3.org/2000/svg" width="65.046875" height="16.576171875" viewBox="0 0 65.046875 16.576171875" fill="rgb(26, 26, 26)">
  <path d="M13.32 0L13.32 2.73L8.31 2.73L8.31 16.35L4.94 16.35L4.94 2.73L0 2.73L0 0L13.32 0ZM19.62 16.58L19.62 16.58Q16.95 16.58 15.27 14.94Q13.59 13.30 13.59 10.57L13.59 10.57L13.59 10.25Q13.59 8.42 14.30 6.98Q15.00 5.54 16.30 4.76Q17.60 3.98 19.26 3.98L19.26 3.98Q21.75 3.98 23.19 5.55Q24.62 7.12 24.62 10.01L24.62 10.01L24.62 11.33L16.88 11.33Q17.04 12.52 17.83 13.24Q18.62 13.96 19.83 13.96L19.83 13.96Q21.71 13.96 22.76 12.60L22.76 12.60L24.36 14.39Q23.63 15.42 22.38 16.00Q21.14 16.58 19.62 16.58ZM19.25 6.60L19.25 6.60Q18.28 6.60 17.68 7.25Q17.08 7.91 16.91 9.12L16.91 9.12L21.43 9.12L21.43 8.86Q21.41 7.78 20.84 7.19Q20.28 6.60 19.25 6.60ZM33.04 12.99L33.04 12.99Q33.04 12.40 32.45 12.06Q31.86 11.71 30.56 11.44L30.56 11.44Q26.22 10.53 26.22 7.76L26.22 7.76Q26.22 6.14 27.57 5.06Q28.91 3.98 31.07 3.98L31.07 3.98Q33.39 3.98 34.78 5.06Q36.16 6.15 36.16 7.90L36.16 7.90L32.92 7.90Q32.92 7.20 32.47 6.74Q32.02 6.29 31.06 6.29L31.06 6.29Q30.24 6.29 29.79 6.66Q29.35 7.03 29.35 7.60L29.35 7.60Q29.35 8.14 29.86 8.47Q30.37 8.80 31.58 9.05Q32.79 9.29 33.62 9.59L33.62 9.59Q36.20 10.53 36.20 12.86L36.20 12.86Q36.20 14.52 34.77 15.55Q33.34 16.58 31.09 16.58L31.09 16.58Q29.56 16.58 28.37 16.03Q27.19 15.49 26.52 14.54Q25.84 13.59 25.84 12.49L25.84 12.49L28.92 12.49Q28.96 13.35 29.56 13.81Q30.15 14.27 31.15 14.27L31.15 14.27Q32.09 14.27 32.56 13.92Q33.04 13.57 33.04 12.99ZM38.92 1.21L42.17 1.21L42.17 4.20L44.25 4.20L44.25 6.58L42.17 6.58L42.17 12.65Q42.17 13.32 42.43 13.61Q42.69 13.90 43.42 13.90L43.42 13.90Q43.96 13.90 44.37 13.82L44.37 13.82L44.37 16.28Q43.42 16.58 42.41 16.58L42.41 16.58Q38.99 16.58 38.92 13.13L38.92 13.13L38.92 6.58L37.15 6.58L37.15 4.20L38.92 4.20L38.92 1.21ZM52.93 4.12L52.88 7.24Q52.22 7.15 51.72 7.15L51.72 7.15Q49.87 7.15 49.30 8.40L49.30 8.40L49.30 16.35L46.06 16.35L46.06 4.20L49.12 4.20L49.21 5.65Q50.19 3.98 51.92 3.98L51.92 3.98Q52.46 3.98 52.93 4.12L52.93 4.12ZM53.54 10.31L53.54 10.16Q53.54 8.36 54.23 6.94Q54.93 5.53 56.24 4.75Q57.54 3.98 59.27 3.98L59.27 3.98Q61.73 3.98 63.29 5.48Q64.84 6.99 65.02 9.57L65.02 9.57L65.05 10.40Q65.05 13.20 63.49 14.89Q61.92 16.58 59.30 16.58Q56.67 16.58 55.10 14.89Q53.54 13.21 53.54 10.31L53.54 10.31ZM56.78 10.40L56.78 10.40Q56.78 12.13 57.43 13.04Q58.08 13.96 59.30 13.96L59.30 13.96Q60.48 13.96 61.14 13.06Q61.80 12.15 61.80 10.16L61.80 10.16Q61.80 8.47 61.14 7.54Q60.48 6.60 59.27 6.60L59.27 6.60Q58.08 6.60 57.43 7.53Q56.78 8.46 56.78 10.40Z"/>
</svg>